<?xml version="1.0" standalone="no"?><!DOCTYPE svg PUBLIC "-//W3C//DTD SVG 1.1//EN" "http://www.w3.org/Graphics/SVG/1.1/DTD/svg11.dtd"><svg t="1559036514980" class="icon" style="" viewBox="0 0 1024 1024" version="1.1" xmlns="http://www.w3.org/2000/svg" p-id="1693" xmlns:xlink="http://www.w3.org/1999/xlink" width="200" height="200"><defs><style type="text/css"></style></defs><path d="M981.333333 298.666667h-85.333333v426.666666h85.333333a42.666667 42.666667 0 0 0 42.666667-42.666666V341.333333a42.666667 42.666667 0 0 0-42.666667-42.666666zM0 341.333333v341.333334a42.666667 42.666667 0 0 0 42.666667 42.666666h85.333333V298.666667H42.666667a42.666667 42.666667 0 0 0-42.666667 42.666666zM810.666667 170.666667H213.333333a42.666667 42.666667 0 0 0-42.666666 42.666666v597.333334a42.666667 42.666667 0 0 0 42.666666 42.666666h597.333334a42.666667 42.666667 0 0 0 42.666666-42.666666V213.333333a42.666667 42.666667 0 0 0-42.666666-42.666666zM351.189333 314.154667c38.101333 0 68.906667 30.805333 68.906667 68.906666s-30.805333 68.906667-68.906667 68.906667a68.864 68.864 0 1 1 0-137.813333zM236.373333 768s37.632-228.821333 112.64-228.821333 66.048 63.914667 122.453334 63.914666 79.701333-197.034667 155.52-197.034666C702.762667 406.058667 787.626667 768 787.626667 768H236.373333z" p-id="1694"></path></svg>