<?xml version="1.0" standalone="no"?><!DOCTYPE svg PUBLIC "-//W3C//DTD SVG 1.1//EN" "http://www.w3.org/Graphics/SVG/1.1/DTD/svg11.dtd"><svg t="1559030853351" class="icon" style="" viewBox="0 0 1024 1024" version="1.1" xmlns="http://www.w3.org/2000/svg" p-id="1735" xmlns:xlink="http://www.w3.org/1999/xlink" width="200" height="200"><defs><style type="text/css"></style></defs><path d="M573.046 365.75h326.74v122.501h-326.74v-122.501zM468.277 125.232c-24.461-37.911-83.163-49.531-121.076-25.070s-53.609 82.756-24.868 127.596c24.255 37.911 141.253 151.854 179.371 127.396 37.708-24.461-8.971-192.007-33.427-229.922zM457.273 286.463c-18.956 12.233-83.776-69.71-96.004-88.666-12.233-18.956-7.747-42.602 11.211-54.831s40.362-0.613 52.587 18.346c12.434 18.956 51.162 112.923 32.206 125.153zM573.046 529.225h285.771v408.271h-285.771v-408.271zM123.805 365.75h326.74v122.501h-326.74v-122.501zM164.571 529.225h285.973v408.271h-285.973v-408.271z" p-id="1736"></path><path d="M707.983 163.55c-27.722-28.942-80.716-30.983-109.659-3.261s-103.952 162.657-76.233 191.6c27.722 28.942 152.261-45.25 181.207-72.971 33.839-32.815 32.409-86.425 4.686-115.366zM671.904 264.448c-18.142 8.56-105.178 40.155-113.941 22.014-8.56-18.142 64.615-70.934 82.756-79.494 18.142-8.56 39.747-7.338 48.309 10.802 8.765 18.142 1.019 38.115-17.123 46.678z" p-id="1737"></path></svg>