<?xml version="1.0" standalone="no"?><!DOCTYPE svg PUBLIC "-//W3C//DTD SVG 1.1//EN" "http://www.w3.org/Graphics/SVG/1.1/DTD/svg11.dtd"><svg t="1559031216841" class="icon" style="" viewBox="0 0 2067 1024" version="1.1" xmlns="http://www.w3.org/2000/svg" p-id="4862" xmlns:xlink="http://www.w3.org/1999/xlink" width="403.7109375" height="200"><defs><style type="text/css"></style></defs><path d="M0 271.552c12.608 8.704 25.536 18.24 39.04 28.992 33.984-2.048 144.896-3.072 332.992-3.072C367.936 341.504 361.664 386.56 352.96 432.448c-29.888 0-54.656-4.224-73.856-12.992-58.048-26.56-89.152-38.4-93.056-34.944 8.704 142.656 9.088 329.92 1.088 561.984-2.752 11.968-1.728 21.696 2.88 28.992 4.736 4.608 16 7.296 34.112 8.064 25.92 0 44.544-2.048 56-6.144 17.856-4.608 27.008-12.992 27.008-24.96l0-41.984 348.992 0c0 36.032 2.368 56.32 6.976 60.928 8 8 35.008 7.616 81.024-1.024 21.888-4.608 34.624-12.032 37.888-21.888-1.984-40.768-3.264-195.392-3.904-464 20.032-14.08 30.272-23.424 30.848-28.032 0-4.096-7.616-11.84-22.848-23.04l-92.032-51.072c-6.72 0-23.36 16.768-49.984 49.984L425.92 432.32l73.152-109.056c14.016-4.608 24.896-13.312 32.896-25.92l393.152 1.024c11.904 0 17.856-3.968 17.856-11.968-14.016-24.064-42.496-52.032-85.888-84.096-4.096-3.968-7.616-5.952-11.136-5.952-6.656 0-31.488 26.944-74.88 81.088L570.048 277.44c40.64-46.08 81.344-94.4 121.984-145.088 3.904-0.704 9.024-2.56 14.976-5.952 16.64-5.952 25.28-11.648 25.984-17.088 0-7.808-11.392-16.896-33.984-26.944C624.32 54.464 578.048 40.448 559.936 40.448c-6.656 68.096-23.104 147.456-49.984 238.08L68.928 277.504 0 271.552 0 271.552zM307.072 737.408 307.072 599.552l348.992 0 0 137.856L307.072 737.408 307.072 737.408zM307.072 580.416 307.072 451.456l348.992 0 0 129.024L307.072 580.48 307.072 580.416zM307.072 890.56l0-133.12 348.992 0 0 133.12L307.072 890.56 307.072 890.56zM220.992 62.464 212.928 62.464c-5.952 0-9.344 2.368-9.856 6.976 0 0.704 7.36 6.656 21.888 18.048C253.568 106.176 274.048 140.416 286.08 190.464c0 10.048 3.52 20.672 10.88 32.064 10.112 22.016 28.032 33.28 54.144 33.984 20.032 0 36.736-7.68 49.984-23.04 12.032-11.968 18.24-26.304 19.008-43.008 0-22.016-7.744-42.688-23.104-61.952-23.872-32.064-72.896-53.376-146.944-64C239.936 63.872 230.4 63.168 220.992 62.464z" p-id="4863"></path><path d="M2046.4 159.424c1.856 0 4.608-0.192 8.128-0.832 8-2.752 11.904-6.336 11.904-11.136 0-5.952-28.992-33.28-86.976-81.92-8-5.952-13.376-9.344-16.128-10.048-7.744 0-24.256 18.112-48.896 53.888-2.624 6.144-11.392 16.384-25.984 31.04L1183.36 140.416l-49.024-5.952c8 8.704 16.384 17.6 24.896 26.944 22.144-2.048 141.504-2.88 358.144-2.88-4.032 51.84-11.648 104.256-22.976 156.992-50.112 0-81.28-1.728-93.888-5.12-66.112-24.576-102.144-37.568-108.096-38.912-0.64 0.704-1.984 1.664-4.032 2.88l4.992 354.112c-4.032 80.576-3.776 123.904 1.152 129.856 3.904 4.096 11.904 6.016 23.872 6.016 28.608 0 54.656-6.4 78.016-19.008 6.016-8 9.728-24 11.008-47.936-1.984-24.768-3.008-145.408-3.008-361.92l377.024 0-4.032 383.936c0 6.016 4.352 10.56 12.992 14.08 23.872 8 54.656 5.248 92.032-8.064 12.032-4.032 19.392-11.456 22.016-22.08-1.984-44.032-3.392-155.968-4.032-336 24-17.92 36.032-30.016 36.032-36.032 0-8-17.6-20.992-52.992-38.912l-70.144-30.016c-7.872 0-22.848 17.728-44.864 53.12l-203.904 0 43.904-62.144c12.032-18.624 24.768-37.376 38.016-56 25.984-8.704 39.232-17.216 39.872-25.92-0.64-4.096-3.136-8.384-7.744-12.992L2046.4 159.424 2046.4 159.424zM1527.36 415.424c0 40.064 0.768 63.424 1.856 70.144 0 126.656-17.28 219.264-51.904 278.016-20.608 33.984-49.28 65.472-86.016 94.848-36.608 28.608-100.608 60.032-192 94.08-16 2.688-24.384 6.912-25.024 12.928 0 4.096 4.736 6.4 13.888 6.976 6.272 0 11.52-0.384 16.128-1.024 92.032-17.92 158.4-35.392 198.976-51.904 76.608-38.72 125.12-68.096 145.024-88.128 22.016-24 42.752-54.656 62.016-91.968 104.64 45.952 186.752 113.344 245.888 202.048 14.72 23.872 36.032 36.16 64 36.864 18.752 0 35.52-6.4 49.984-19.008 14.72-16 22.4-34.624 23.104-55.936 0-25.92-9.984-48.96-30.144-68.928-59.904-60.096-173.12-96.768-339.904-110.144L1615.36 724.288c16-57.984 27.904-148.992 36.032-273.024 20.608-9.92 31.36-18.624 32-25.984 0-9.984-11.008-17.856-33.152-24-2.496-2.624-42.24-9.6-118.848-20.992-2.112 0-4.224 0.64-6.976 1.984L1527.36 415.424z" p-id="4864"></path></svg>