<?xml version="1.0" standalone="no"?><!DOCTYPE svg PUBLIC "-//W3C//DTD SVG 1.1//EN" "http://www.w3.org/Graphics/SVG/1.1/DTD/svg11.dtd"><svg t="1559031329529" class="icon" style="" viewBox="0 0 1024 1024" version="1.1" xmlns="http://www.w3.org/2000/svg" p-id="6781" xmlns:xlink="http://www.w3.org/1999/xlink" width="200" height="200"><defs><style type="text/css"></style></defs><path d="M985.25980445 442.49998222L599.7056 41.50840889c-23.96387555-24.89457778-55.99004445-38.59797333-90.30997333-38.59797334-34.32106667 0-66.34723555 13.70339555-90.31224889 38.59797334L33.53031111 442.49998222c-39.77557333 41.38894222-34.66126222 77.16750222-28.08832 92.11221333 4.67968 10.60181333 20.52323555 39.74485333 66.09692444 39.74485334l56.51797334 0 0 308.47772444c0 70.03591111 50.34894222 135.98037333 121.87306666 135.98037334l64.85788445 0 99.27224889 0 0-72.48668445L414.06008889 692.35370667c0-35.00259555-5.30204445-54.50410667 30.47537778-54.50410667l64.85902222 0 64.85788444 0c35.77742222 0 30.47424 19.50264889 30.47424 54.50410667l0 253.97589333 0 72.48440889 99.27111112 0 64.86016 0c71.52412445 0 121.87192889-65.94446222 121.87192888-135.98037334L890.72981333 574.35591111l56.51797334 0c45.57368889 0 61.41610667-29.14417778 66.0992-39.74485333C1019.91879111 519.66634667 1025.03537778 483.88778667 985.25980445 442.49998222z" fill="#FF0090" p-id="6782"></path></svg>