<?xml version="1.0" standalone="no"?><!DOCTYPE svg PUBLIC "-//W3C//DTD SVG 1.1//EN" "http://www.w3.org/Graphics/SVG/1.1/DTD/svg11.dtd"><svg t="1559030928705" class="icon" style="" viewBox="0 0 1024 1024" version="1.1" xmlns="http://www.w3.org/2000/svg" p-id="1845" xmlns:xlink="http://www.w3.org/1999/xlink" width="200" height="200"><defs><style type="text/css"></style></defs><path d="M590.777845 367.239794h218.72981c40.853792 0 63.085134 18.933126 74.981105 35.164101 4.649291 5.953404 8.269019 13.528822 10.855571 18.929514h25.341706V261.234516c0-74.64153-54.812503-137.383476-126.17388-137.383475H175.545954c-71.877965 0-133.413335 63.283821-133.413336 137.928963V639.846469c0 74.103267 61.53537 133.055697 132.38016 133.055697h51.709363c9.305807 0 17.58205 5.949792 22.231341 14.601736l59.469019 107.092641c4.139928 7.02993 13.445735 7.571806 17.58205 0.5491l63.085134-108.180004c4.656516-8.113681 12.932759-14.063473 22.238566-14.063473h18.095026l90.496803-352.110633c8.269019-31.909236 36.710252-53.551739 71.357765-53.551739z m-232.179157 118.992225h-144.789106c-17.065462 0-31.024173-14.601736-31.024173-32.447499s13.95871-32.454724 31.024173-32.454724h144.789106c17.065462 0 31.024173 14.605348 31.024172 32.454724s-13.95871 32.447499-31.024172 32.447499z m-144.789106-156.84764c-17.065462 0-31.024173-14.598123-31.024173-32.454724 0-17.845763 13.95871-32.447499 31.024173-32.447499h429.190601c17.065462 0 31.027785 14.601736 31.027786 32.447499 0 17.856601-13.962323 32.454724-31.027786 32.454724H213.809582z m763.751696 155.236463c-4.129091-5.415141-10.342595-9.739307-16.548874-9.739307h-109.101193c-0.921188 0-1.426939 0.39015-1.892951 0.104763-0.068638 0.328738-0.104763 0.653863-0.177013 0.982601v-1.087364c0.0578 0.061413 0.119213 0.068638 0.177013 0.104763 2.78524-13.196472 0.67915-26.313469-6.386905-36.341777-7.752431-10.281183-19.648402-17.311113-34.127312-17.311112h-218.72981c-9.313032 0-17.58205 7.571806-20.168603 16.769237l-64.118309 249.891258a23.539067 23.539067 0 0 0-0.552713 7.842743l-45.474183 177.139067c-3.099527 11.354096 3.62334 23.257292 14.47891 26.504932 1.553376 0.538263 3.619728 0.538263 5.173104 0.538263 9.302194 0 17.58205-6.49528 20.168602-15.689099l43.873845-170.911112h201.230847c-3.099527 16.223749-1.033176 26.490482 6.722868 36.771664 8.272631 10.823058 21.201778 17.3075 36.197276 17.3075h108.59183c9.305807 0 17.58205-5.404304 20.168602-15.678261l64.11831-247.723757c1.549764-6.49528 0.516588-14.070698-3.623341-19.475002z m-96.17927 239.599238h-93.079743c-1.033176 0-2.066352 1.083751-2.586552 1.083751 3.106752-14.063473 1.033176-28.123333-6.715642-38.39729-7.759656-10.281183-19.652014-16.765625-33.614338-16.765625h-190.122401l52.760601-205.540563h201.48011c-0.516588 5.407916-1.033176 4.324166-1.033176 6.488055-1.033176 12.448684 3.619728 25.421181 11.892359 34.615 8.272631 9.201044 20.168602 12.986947 32.057348 12.986947h82.220561l-53.259127 205.529725z" p-id="1846"></path></svg>