<?xml version="1.0" standalone="no"?><!DOCTYPE svg PUBLIC "-//W3C//DTD SVG 1.1//EN" "http://www.w3.org/Graphics/SVG/1.1/DTD/svg11.dtd"><svg t="1559028877231" class="icon" style="" viewBox="0 0 1024 1024" version="1.1" xmlns="http://www.w3.org/2000/svg" p-id="1922" xmlns:xlink="http://www.w3.org/1999/xlink" width="200" height="200"><defs><style type="text/css"></style></defs><path d="M1023.323967 186.153502v17.268592h-161.173525a24.303944 24.303944 0 0 1-19.187325-8.314507 67.795213 67.795213 0 0 1-11.512394-18.547747 102.971974 102.971974 0 0 1-7.67493-22.385212 88.261692 88.261692 0 0 1-3.197887-17.908169V0.676033h3.197887a63.957748 63.957748 0 0 1 18.547747 0 152.859018 152.859018 0 0 1 21.106057 10.23324l30.060141 22.385212c12.151972 8.954085 26.862254 21.745634 45.410001 37.735071s35.176761 33.258029 46.689156 45.410001 20.466479 22.385212 26.862254 30.699719a88.90127 88.90127 0 0 1 11.512395 21.106057 71.632678 71.632678 0 0 1-0.639577 17.908169zM812.902976 256.507025a105.530284 105.530284 0 0 1-35.816339-33.258029 143.904933 143.904933 0 0 1-21.106057-43.491268 161.813102 161.813102 0 0 1-6.395774-45.410001V0.676033H127.915496a90.820002 90.820002 0 0 0-47.968311 13.431127 163.092257 163.092257 0 0 0-40.932959 34.537184 170.127609 170.127609 0 0 0-28.780986 45.410001A117.042679 117.042679 0 0 0 0 141.383079v741.909876a104.251129 104.251129 0 0 0 14.070705 52.445353 184.198314 184.198314 0 0 0 35.816338 44.770423 191.873244 191.873244 0 0 0 45.410001 31.339297 101.053242 101.053242 0 0 0 45.410001 12.151972h431.075221L511.661983 967.077604a74.830565 74.830565 0 0 1-12.791549-88.901269 74.190988 74.190988 0 0 1-51.166199-60.120283H204.025216a63.957748 63.957748 0 0 1-47.968311-20.46648 68.43479 68.43479 0 0 1 47.968311-116.403101h262.226766a72.911833 72.911833 0 0 1 35.816339-23.024789A73.55141 73.55141 0 0 1 511.661983 569.260412l24.303945-24.303944H204.025216a63.957748 63.957748 0 0 1-47.968311-19.826902 63.957748 63.957748 0 0 1-19.826902-47.968311 63.957748 63.957748 0 0 1 19.826902-47.968311 63.957748 63.957748 0 0 1 47.968311-20.466479h613.99438a63.957748 63.957748 0 0 1 47.968311 20.466479 63.957748 63.957748 0 0 1 19.826902 47.968311 67.795213 67.795213 0 0 1-4.477043 23.664367 74.830565 74.830565 0 0 1 85.063805 11.512395l54.364086 54.364085v-294.20564h-156.696483a95.297044 95.297044 0 0 1-51.166198-15.989437zM1023.323967 729.79436v76.749297a10.23324 10.23324 0 0 1-7.67493 10.23324l-49.887044 12.791549a191.873244 191.873244 0 0 1-14.710282 35.816339l26.222677 44.130846a8.954085 8.954085 0 0 1 0 12.151972l-54.364086 55.003664a9.593662 9.593662 0 0 1-12.151972 0l-44.130846-26.222677a191.873244 191.873244 0 0 1-35.816339 14.710282l-12.791549 49.887043a10.23324 10.23324 0 0 1-10.23324 7.67493H729.118326a10.23324 10.23324 0 0 1-10.233239-7.67493L703.535227 966.438027a191.873244 191.873244 0 0 1-35.816339-14.710282l-44.130846 26.222677a8.954085 8.954085 0 0 1-12.151972 0l-55.003663-54.364086a10.23324 10.23324 0 0 1 0-12.79155l26.222676-43.491268A191.873244 191.873244 0 0 1 569.223956 832.126756l-49.887043-12.791549a10.23324 10.23324 0 0 1-7.67493-12.79155v-76.749297a10.23324 10.23324 0 0 1 7.67493-10.23324L569.223956 704.21126a191.873244 191.873244 0 0 1 14.710282-35.816338l-26.222676-44.130846a8.954085 8.954085 0 0 1 0-12.151973l54.364086-55.003663a10.23324 10.23324 0 0 1 12.791549 0l44.130846 26.222677A170.127609 170.127609 0 0 1 703.535227 569.89999l12.79155-49.887044a10.23324 10.23324 0 0 1 12.791549-7.674929h76.749298a10.23324 10.23324 0 0 1 10.233239 7.674929l12.79155 49.887044a191.873244 191.873244 0 0 1 35.816339 14.710282l44.130846-26.222677a9.593662 9.593662 0 0 1 12.151972 0l55.003663 55.003663a9.593662 9.593662 0 0 1 0 12.151973l-26.222676 44.130846a191.873244 191.873244 0 0 1 14.710282 35.816338l49.887043 12.79155a10.23324 10.23324 0 0 1 8.954085 11.512395z m-142.625778 38.374648A113.205214 113.205214 0 1 0 767.492975 881.374222 113.205214 113.205214 0 0 0 880.698189 768.169008z" p-id="1923"></path></svg>