<?xml version="1.0" standalone="no"?><!DOCTYPE svg PUBLIC "-//W3C//DTD SVG 1.1//EN" "http://www.w3.org/Graphics/SVG/1.1/DTD/svg11.dtd"><svg t="1559031072259" class="icon" style="" viewBox="0 0 1024 1024" version="1.1" xmlns="http://www.w3.org/2000/svg" p-id="1954" xmlns:xlink="http://www.w3.org/1999/xlink" width="200" height="200"><defs><style type="text/css"></style></defs><path d="M1019.578182 825.576727l-48.546909-33.093818c0-6.609455 2.187636-13.265455 2.187636-22.062545 0-8.843636 0-15.453091-2.187636-22.062546l46.359272-35.328c4.375273-4.421818 4.375273-8.843636 2.187637-13.265454l-44.125091-75.031273c-2.234182-2.187636-6.609455-4.375273-13.265455-2.187636l-52.968727 22.062545c-11.031273-8.843636-24.250182-15.453091-37.515636-22.062545l-8.843637-55.156364c2.234182-6.656-4.375273-11.031273-8.797091-11.031273H768c-4.421818 0-11.031273 4.375273-11.031273 8.843637l-8.843636 59.578181c-13.218909 4.375273-24.250182 13.218909-37.515636 22.062546l-50.734546-22.109091c-6.656-2.187636-11.031273 0-15.453091 4.421818l-44.125091 75.031273c-2.234182 2.234182 0 8.843636 4.375273 13.265454l46.359273 33.093819c0 6.609455-2.187636 13.265455-2.187637 22.062545 0 8.843636 0 15.453091 2.187637 22.062545l-46.359273 35.328c-4.375273 4.421818-4.375273 8.843636-2.187636 13.21891l44.125091 75.031272c2.234182 2.234182 6.609455 4.421818 13.265454 2.234182l52.968727-22.062545c11.031273 8.843636 24.250182 15.453091 37.515637 22.062545l8.843636 55.156364c0 4.421818 4.375273 8.843636 10.984727 8.843636h86.109091c4.375273 0 11.031273-4.421818 11.031273-8.843636l8.843636-55.156364c13.218909-6.609455 26.437818-13.265455 37.469091-22.062545l52.968728 22.062545c4.421818 2.187636 11.031273 0 13.265454-4.421818L1024 841.029818c0-6.609455 0-13.265455-4.421818-15.453091z m-207.453091 19.874909c-41.890909 0-75.031273-33.093818-75.031273-75.031272 0-39.749818 35.328-75.031273 75.031273-75.031273 41.937455 0 75.031273 33.047273 75.031273 75.031273 0 41.890909-35.281455 75.031273-75.031273 75.031272z m-128-417.093818v-4.421818c0-11.031273 0-22.062545-2.187636-33.093818l64-64c-11.031273-46.359273-33.093818-88.296727-59.578182-128l-90.484364 11.031273c-8.843636-8.843636-17.687273-17.687273-26.530909-24.296728V95.092364c-39.703273-24.250182-83.781818-39.703273-132.375273-48.546909L379.578182 117.154909H375.156364c-11.031273 0-22.062545 0-33.047273 2.234182L278.016 55.389091c-46.359273 11.031273-88.250182 33.047273-128 59.578182l8.843636 90.484363c-8.843636 8.843636-17.687273 17.687273-24.296727 26.484364H44.125091C24.296727 271.639273 6.609455 315.764364 0 362.123636l68.421818 57.390546v4.421818c0 11.031273 0 22.062545 2.187637 33.093818L6.609455 521.029818c11.031273 46.359273 33.093818 88.250182 59.578181 128l90.484364-8.843636c8.843636 8.843636 17.687273 17.687273 26.530909 24.296727v90.484364c39.703273 24.250182 83.828364 39.703273 132.375273 48.546909l57.390545-68.421818h4.421818c11.031273 0 22.062545 0 33.093819-2.187637l64 64c46.359273-11.031273 88.250182-33.093818 128-59.578182l-8.843637-90.484363c8.843636-8.843636 17.687273-17.687273 24.296728-26.530909h90.484363c24.250182-39.703273 39.703273-83.828364 48.546909-132.375273l-72.843636-59.578182z m-306.734546 161.047273a162.909091 162.909091 0 0 1-163.328-163.281455 162.909091 162.909091 0 0 1 163.328-163.328 162.909091 162.909091 0 0 1 163.281455 163.374546 162.909091 162.909091 0 0 1-163.281455 163.281454z" p-id="1955"></path></svg>